<?xml version="1.0" standalone="no"?>
<!DOCTYPE svg PUBLIC "-//W3C//DTD SVG 20010904//EN"
 "http://www.w3.org/TR/2001/REC-SVG-20010904/DTD/svg10.dtd">
<svg version="1.0" xmlns="http://www.w3.org/2000/svg"
 width="399.000000pt" height="399.000000pt" viewBox="0 0 399.000000 399.000000"
 preserveAspectRatio="xMidYMid meet">
<metadata>
Created by potrace 1.14, written by Peter Selinger 2001-2017
</metadata>
<g transform="translate(0.000000,399.000000) scale(0.100000,-0.100000)"
fill="#000000" stroke="none">
<path d="M2273 3864 c-84 -30 -220 -183 -281 -316 -22 -48 -54 -160 -67 -233
-4 -22 -10 -33 -12 -25 -22 66 -93 230 -130 300 -78 146 -158 221 -248 233
-157 21 -289 -199 -256 -428 18 -125 66 -247 135 -345 18 -25 36 -51 40 -58 4
-7 -21 6 -56 29 -93 60 -215 116 -278 127 -140 25 -266 -40 -323 -167 -79
-179 78 -403 352 -502 59 -21 62 -24 40 -32 -116 -46 -193 -101 -250 -177 -89
-119 -87 -259 7 -369 77 -91 221 -93 395 -5 38 19 70 34 72 34 2 0 -5 -26 -16
-57 -27 -75 -27 -202 -2 -293 23 -83 85 -205 132 -260 69 -81 161 -101 242
-53 52 30 69 48 112 116 17 26 32 47 34 47 1 0 0 -20 -2 -44 -7 -60 13 -260
38 -375 27 -125 81 -277 133 -379 24 -45 42 -82 40 -82 -2 0 -30 20 -61 44
-32 24 -111 82 -175 130 -214 157 -481 400 -578 526 -48 62 -103 146 -113 173
-7 18 -32 23 -42 7 -8 -13 22 -182 46 -260 52 -166 148 -313 317 -486 178
-183 323 -280 497 -333 287 -86 341 -104 359 -117 27 -18 65 -18 72 1 3 8 -9
33 -28 57 -131 164 -288 526 -346 798 -21 94 -45 261 -57 395 l-7 70 43 -83
c51 -100 99 -145 174 -168 47 -13 65 -14 102 -4 106 26 208 103 248 185 25 50
27 63 23 133 -6 84 -29 162 -89 292 l-40 84 78 -75 c148 -143 233 -183 373
-176 64 3 99 10 142 30 140 63 201 131 202 225 1 120 -76 245 -221 361 -88 71
-286 181 -324 181 -11 0 -17 5 -14 10 3 6 17 10 30 10 31 0 187 55 250 88 114
61 182 125 233 224 24 47 27 63 27 153 -1 110 -20 173 -73 228 -55 59 -96 72
-217 72 -94 0 -120 -4 -184 -28 -96 -35 -207 -95 -281 -152 -32 -25 -61 -45
-64 -45 -2 0 11 33 29 74 61 131 79 215 80 361 0 106 -4 143 -22 200 -40 127
-121 171 -240 129z m154 -69 c61 -70 79 -305 35 -457 -44 -155 -157 -361 -258
-470 -29 -32 -55 -67 -59 -78 -7 -21 -7 -21 -85 0 -21 5 -26 16 -42 91 -55
258 -60 410 -18 544 70 226 244 417 365 401 26 -3 48 -14 62 -31z m-824 -46
c59 -39 125 -137 188 -278 51 -116 112 -295 128 -381 6 -30 20 -104 32 -163
11 -60 19 -110 17 -111 -2 -1 -30 -7 -63 -14 -33 -7 -73 -21 -88 -33 l-28 -20
-37 28 c-20 16 -60 44 -88 61 -97 61 -200 186 -274 330 -76 150 -96 312 -54
437 53 157 160 215 267 144z m1450 -480 c54 -15 111 -69 126 -120 7 -23 15
-74 18 -113 7 -99 -19 -166 -95 -243 -133 -135 -421 -228 -626 -203 -45 5 -96
11 -114 12 -27 2 -40 11 -67 49 -19 25 -52 58 -74 74 -39 26 -40 28 -22 44 10
9 44 51 75 93 63 85 178 197 271 264 74 52 210 118 285 138 66 18 170 20 223
5z m-1941 -160 c79 -16 219 -90 343 -181 61 -44 154 -110 207 -145 l97 -64
-28 -47 c-31 -50 -54 -133 -51 -179 3 -43 3 -43 -37 -26 -30 13 -75 17 -213
18 -160 1 -182 4 -253 27 -114 38 -208 98 -269 171 -67 80 -88 128 -88 200 0
125 89 215 232 236 4 1 31 -4 60 -10z m974 -379 c75 -29 139 -74 128 -92 -3
-4 -1 -8 3 -8 5 0 19 -23 33 -52 48 -100 17 -200 -86 -278 -58 -44 -60 -45
-147 -49 -90 -3 -127 5 -177 40 -53 36 -109 191 -97 266 8 48 90 159 135 183
54 28 117 25 208 -10z m555 -221 c199 -50 417 -191 512 -331 44 -65 71 -156
62 -205 -15 -80 -163 -177 -291 -190 -73 -8 -176 25 -250 80 -113 83 -282 289
-346 421 l-29 58 21 59 c11 33 20 75 20 94 l0 35 108 0 c77 0 133 -6 193 -21z
m-1068 -96 c122 -6 127 -7 127 -28 0 -12 11 -43 24 -68 l23 -47 -74 -56 c-40
-31 -102 -88 -138 -126 -139 -150 -402 -257 -503 -204 -71 37 -115 115 -116
206 -1 54 4 74 29 118 76 139 248 227 420 217 44 -3 137 -8 208 -12z m739
-240 c94 -155 131 -225 178 -335 97 -229 85 -341 -47 -435 -65 -46 -107 -63
-160 -63 -121 0 -203 110 -257 344 -14 58 -15 105 -10 282 l7 212 43 7 c44 6
143 55 164 80 7 8 14 15 15 15 1 0 32 -48 67 -107z m-477 32 c27 -14 66 -28
87 -31 35 -6 37 -8 30 -33 -7 -27 -8 -165 -2 -331 8 -213 -97 -460 -220 -515
-34 -16 -46 -16 -80 -6 -53 16 -97 56 -139 125 -78 130 -111 280 -87 397 23
110 55 158 155 233 47 35 113 92 146 125 33 34 60 61 60 61 0 0 22 -11 50 -25z"/>
</g>
</svg>
